Coordinates
version=1
nRows=4
nColumns=107
inDegrees=yes

Units are S.I. units (second, meters, Newtons, ...)
If the header above contains a line with 'inDegrees', this indicates whether rotational values are in degrees (yes) or radians (no).

endheader
time	sternoclavicular_r2	sternoclavicular_r3	unrotscap_r3	unrotscap_r2	acromioclavicular_r2	acromioclavicular_r3	acromioclavicular_r1	unrothum_r1	unrothum_r3	unrothum_r2	elv_angle	shoulder_elv	shoulder1_r2	shoulder_rot	elbow_flexion	pro_sup	deviation	flexion	proximal_distal_r1	proximal_distal_r3	cmc_flexion	cmc_abduction	mp_flexion	ip_flexion	mcp2_flexion	mcp2_abduction	pm2_flexion	md2_flexion	mcp3_flexion	mcp3_abduction	pm3_flexion	md3_flexion	mcp4_flexion	mcp4_abduction	pm4_flexion	md4_flexion	mcp5_flexion	mcp5_abduction	pm5_flexion	md5_flexion	bicpt_tx	bicpt_ty	bicpt_tz	bicpt2_tx	bicpt2_ty	bicpt2_tz	ptpt_tx	ptpt_ty	ptpt_tz	FCUpt_tx	FCUpt_ty	FCUpt_tz	EDCpt_tx	EDCpt_ty	EDCpt_tz	APLpt_tx	APLpt_ty	APLpt_tz	FPLpt_tx	FPLpt_ty	FPLpt_tz	FPLpt2_tx	FPLpt2_ty	FPLpt2_tz	PEC1pt2_tx	PEC1pt2_ty	PEC1pt2_tz	PEC1pt3_tx	PEC1pt3_ty	PEC1pt3_tz	PEC2pt2_tx	PEC2pt2_ty	PEC2pt2_tz	PEC2pt3_tx	PEC2pt3_ty	PEC2pt3_tz	PEC3pt2_tx	PEC3pt2_ty	PEC3pt2_tz	PEC3pt3_tx	PEC3pt3_ty	PEC3pt3_tz	DELT2pt2a_tx	DELT2pt2a_ty	DELT2pt2a_tz	DELT2pt2_tx	DELT2pt2_ty	DELT2pt2_tz	LAT1pt2_tx	LAT1pt2_ty	LAT1pt2_tz	LAT1pt3_tx	LAT1pt3_ty	LAT1pt3_tz	LAT2pt2_tx	LAT2pt2_ty	LAT2pt2_tz	LAT2pt3_tx	LAT2pt3_ty	LAT2pt3_tz	LAT3pt2_tx	LAT3pt2_ty	LAT3pt2_tz	LAT3pt3_tx	LAT3pt3_ty	LAT3pt3_tz
      0.96666667	     -0.32248330	      0.13658871	     -0.13658871	      0.32248330	     -0.06529631	      0.52770180	      0.23719833	     -0.23719833	     -0.52770180	      0.06529631	     99.96689172	     76.35078876	     -1.74475140	    -25.67954701	     28.82466145	     51.46846567	      0.20065636	      0.23543471	      0.23936359	      0.11771735	     36.72655935	    -17.37719760	     13.57231303	     10.02979964	    -15.62050783	     11.27990427	     12.12026537	    -34.61179541	    -22.22062747	      5.57605721	      6.16988263	      9.97085379	    -18.94907221	     -8.02362215	     -7.91335524	     19.95870082	    -34.59349173	    -13.94396554	     -1.09304875	      5.05104697	      0.00085343	     -0.03090375	     -0.00483215	      0.01644540	     -0.01803036	     -0.00615356	      0.00374706	     -0.06735904	     -0.00419606	      0.00895516	     -0.18323782	     -0.00041831	     -0.00617620	      0.00186706	      0.00002845	     -0.00028730	     -0.00011492	     -0.00057459	     -0.00036774	     -0.00110322	     -0.00062056	     -0.00001277	     -0.00016882	     -0.00020258	      0.00250261	      0.00878035	      0.00610807	     -0.00818651	      0.01976639	     -0.01874838	      0.00250261	      0.00878035	      0.00610807	      0.00055142	      0.01832420	     -0.00962869	      0.00395489	      0.00488264	      0.01598461	      0.00000000	      0.00779635	      0.00000000	     -0.00716850	     -0.03312779	     -0.00642854	      0.01683795	     -0.00061245	     -0.00551345	     -0.00089076	      0.01493083	     -0.00610807	      0.00246019	      0.02154791	     -0.01781520	     -0.00598082	      0.01293723	     -0.00547181	     -0.01247064	      0.02731664	     -0.03058276	     -0.02341426	      0.01446424	     -0.00733817	     -0.01552467	      0.03155835	     -0.03821784
      1.00000000	     -0.32059065	      0.13578707	     -0.13578707	      0.32059065	     -0.06491309	      0.52460473	      0.23580621	     -0.23580621	     -0.52460473	      0.06491309	    100.42865706	     75.90268654	     -1.75281073	    -28.19079823	     29.13738762	     54.69846215	      0.19731545	      0.26607144	      0.23591823	      0.13303572	     37.37463057	    -17.62216921	     12.98244030	     10.84182100	    -16.75097446	     11.39125068	     12.26963093	    -33.34004308	    -22.73785204	      5.61990552	      6.24033383	      9.63727531	    -19.16637630	     -7.85217325	     -7.67078045	     18.86158481	    -33.89377521	    -13.92971086	     -1.80226498	      5.07721979	      0.00086377	     -0.03093959	     -0.00483792	      0.01635477	     -0.01811531	     -0.00574951	      0.00350840	     -0.06751336	     -0.00445625	      0.00929340	     -0.18315863	     -0.00040942	     -0.00656380	      0.00201150	     -0.00001764	     -0.00033151	     -0.00013260	     -0.00066301	     -0.00042433	     -0.00127299	     -0.00071606	     -0.00001257	     -0.00015834	     -0.00019001	      0.00248792	      0.00872882	      0.00607222	     -0.00813846	      0.01965038	     -0.01863834	      0.00248792	      0.00872882	      0.00607222	      0.00054819	      0.01821666	     -0.00957218	      0.00393792	      0.00485398	      0.01594310	      0.00000000	      0.00770447	      0.00000000	     -0.00712642	     -0.03293336	     -0.00635226	      0.01805411	     -0.00069582	     -0.00663814	     -0.00088553	      0.01484320	     -0.00607222	      0.00244576	      0.02142144	     -0.01771064	     -0.00594572	      0.01286130	     -0.00543970	     -0.01239745	      0.02715632	     -0.03040327	     -0.02327684	      0.01437935	     -0.00729510	     -0.01543356	      0.03137314	     -0.03799354
      1.03333333	     -0.32242467	      0.13656387	     -0.13656387	      0.32242467	     -0.06528444	      0.52760586	      0.23715520	     -0.23715520	     -0.52760586	      0.06528444	    100.10833190	     76.33690669	     -1.74722000	    -26.05884103	     28.60314349	     51.58376362	      0.18405626	      0.21548739	      0.22206230	      0.10774369	     36.66867642	    -17.75842427	     14.39082334	      8.98517017	    -16.86614307	     11.15385900	     12.72090736	    -34.58219353	    -23.75952187	      5.51147047	      7.46840837	     11.99907390	    -19.82950208	     -8.18163019	     -8.25277327	     21.38139964	    -35.23952351	    -13.95051185	     -1.48157482	      5.19137128	      0.00084610	     -0.03087836	     -0.00482806	      0.01644258	     -0.01797018	     -0.00613939	      0.00373854	     -0.06736455	     -0.00420535	      0.00896718	     -0.18323505	     -0.00041813	     -0.00619004	      0.00187216	      0.00002690	     -0.00025935	     -0.00010374	     -0.00051870	     -0.00033197	     -0.00099590	     -0.00056020	     -0.00001278	     -0.00016972	     -0.00020367	      0.00250216	      0.00877875	      0.00610696	     -0.00818502	      0.01976279	     -0.01874497	      0.00250216	      0.00877875	      0.00610696	      0.00055132	      0.01832087	     -0.00962694	      0.00395437	      0.00488175	      0.01598333	      0.00000000	      0.00779349	      0.00000000	     -0.00716719	     -0.03312176	     -0.00642617	      0.01702703	     -0.00062491	     -0.00567792	     -0.00089060	      0.01492812	     -0.00610696	      0.00245975	      0.02154399	     -0.01781196	     -0.00597973	      0.01293488	     -0.00547082	     -0.01246837	      0.02731167	     -0.03057720	     -0.02341000	      0.01446162	     -0.00733683	     -0.01552185	      0.03155261	     -0.03821090
      1.06666667	     -0.32237881	      0.13654445	     -0.13654445	      0.32237881	     -0.06527515	      0.52753082	      0.23712147	     -0.23712147	     -0.52753082	      0.06527515	    100.10955233	     76.32604972	     -1.74724130	    -26.05634391	     28.60405965	     51.58418185	      0.18404737	      0.21551195	      0.22205254	      0.10775597	     36.66897174	    -17.75769761	     14.39076975	      8.98539935	    -16.86507266	     11.15407839	     12.72101373	    -34.58191073	    -23.75848969	      5.51117784	      7.46778556	     11.99853756	    -19.82855662	     -8.18183711	     -8.25236152	     21.38121186	    -35.23984124	    -13.95042388	     -1.48167881	      5.19116542	      0.00084613	     -0.03087846	     -0.00482807	      0.01644255	     -0.01797043	     -0.00613932	      0.00373851	     -0.06736457	     -0.00420538	      0.00896723	     -0.18323503	     -0.00041812	     -0.00619009	      0.00187218	      0.00002689	     -0.00025939	     -0.00010376	     -0.00051879	     -0.00033202	     -0.00099607	     -0.00056029	     -0.00001278	     -0.00016972	     -0.00020366	      0.00250180	      0.00877750	      0.00610609	     -0.00818386	      0.01975998	     -0.01874230	      0.00250180	      0.00877750	      0.00610609	      0.00055124	      0.01831827	     -0.00962557	      0.00395396	      0.00488106	      0.01598233	      0.00000000	      0.00779126	      0.00000000	     -0.00716617	     -0.03311705	     -0.00642432	      0.01702579	     -0.00062483	     -0.00567684	     -0.00089047	      0.01492600	     -0.00610609	      0.00245940	      0.02154093	     -0.01780943	     -0.00597888	      0.01293304	     -0.00547004	     -0.01246660	      0.02730779	     -0.03057285	     -0.02340668	      0.01445956	     -0.00733579	     -0.01551964	      0.03154813	     -0.03820546
